<?xml version="1.0" encoding="UTF-8"?>
<svg id="VDB" xmlns="http://www.w3.org/2000/svg" width="1499.9557" height="547.7796" viewBox="0 0 1499.9557 547.7796">
  <defs>
    <style>
      .cls-1 {
        fill: #f7f4f2;
      }

      .cls-2 {
        fill: #f2ede8;
      }

      .cls-3 {
        fill: #f2f0ef;
      }

      .cls-4 {
        fill: #f8f4f0;
      }

      .cls-5 {
        fill: #f8f7f5;
      }

      .cls-6 {
        fill: #010101;
      }

      .cls-7 {
        fill: #030303;
      }

      .cls-8 {
        fill: #00c1ca;
      }

      .cls-9 {
        fill: #020202;
      }

      .cls-10 {
        fill: #eeecea;
      }

      .cls-11 {
        fill: #eeeae5;
      }

      .cls-12 {
        fill: #ebe5de;
      }

      .cls-13 {
        fill: #ebe4dd;
      }

      .cls-14 {
        fill: #ebeae8;
      }

      .cls-15 {
        fill: #f0edea;
      }

      .cls-16 {
        fill: #f0edeb;
      }

      .cls-17 {
        fill: #eae7e3;
      }

      .cls-18 {
        fill: #eae6e2;
      }

      .cls-19 {
        fill: #f4f0eb;
      }

      .cls-20 {
        fill: #f4f2ef;
      }

      .cls-21 {
        fill: #f4efe9;
      }

      .cls-22 {
        fill: #f5f3f0;
      }

      .cls-23 {
        fill: #e7e1d0;
      }

      .cls-24 {
        fill: #e8b511;
      }

      .cls-25 {
        fill: #e6e4e3;
      }

      .cls-26 {
        fill: #e4dfda;
      }

      .cls-27 {
        fill: #ebddb2;
      }

      .cls-28 {
        fill: #ede3d9;
      }

      .cls-29 {
        fill: #edeae7;
      }

      .cls-30 {
        fill: #ede6de;
      }

      .cls-31 {
        fill: #fee79c;
      }

      .cls-32 {
        fill: #fee187;
      }

      .cls-33 {
        fill: #fef3cf;
      }

      .cls-34 {
        fill: #fee289;
      }

      .cls-35 {
        fill: #fee490;
      }

      .cls-36 {
        fill: #fee491;
      }

      .cls-37 {
        fill: #fee69b;
      }

      .cls-38 {
        fill: #fee69a;
      }

      .cls-39 {
        fill: #f1efec;
      }

      .cls-40 {
        fill: #f1e4bb;
      }

      .cls-41 {
        fill: #ece9e7;
      }

      .cls-42 {
        fill: #fedf7c;
      }

      .cls-43 {
        fill: #feeaac;
      }

      .cls-44 {
        fill: #feedb5;
      }

      .cls-45 {
        fill: #fbf9f8;
      }

      .cls-46 {
        fill: #e6dec3;
      }

      .cls-47 {
        fill: #e5d9cd;
      }

      .cls-48 {
        fill: #e4e2da;
      }

      .cls-49 {
        fill: #fec101;
      }

      .cls-50 {
        fill: #fec100;
      }

      .cls-51 {
        fill: #7d7d7d;
      }

      .cls-52 {
        fill: #a08972;
      }

      .cls-53 {
        fill: #b78e64;
      }

      .cls-54 {
        fill: #734e2a;
      }

      .cls-55 {
        fill: #bfd9da;
      }

      .cls-56 {
        fill: #d6eaeb;
      }

      .cls-57 {
        fill: #dad1c7;
      }

      .cls-58 {
        fill: #c3b19f;
      }

      .cls-59 {
        fill: #c9e6e7;
      }

      .cls-60 {
        fill: #cfbca9;
      }

      .cls-61 {
        fill: #d0bdaa;
      }

      .cls-62 {
        fill: #c88c26;
      }

      .cls-63 {
        fill: #c88d26;
      }

      .cls-64 {
        fill: #ddcfc2;
      }

      .cls-65 {
        fill: #d5c2ae;
      }

      .cls-66 {
        fill: #d5c3b2;
      }

      .cls-67 {
        fill: #dbd4ce;
      }

      .cls-68 {
        fill: #d9f5f7;
      }

      .cls-69 {
        fill: #d9c9b9;
      }

      .cls-70 {
        fill: #d3c1af;
      }

      .cls-71 {
        fill: #dad4ce;
      }

      .cls-72 {
        fill: #d9c4ae;
      }

      .cls-73 {
        fill: #c5dfe0;
      }

      .cls-74 {
        fill: #e1deda;
      }

      .cls-75 {
        fill: #c8b9ab;
      }

      .cls-76 {
        fill: #c98e29;
      }

      .cls-77 {
        fill: #c8b8a8;
      }

      .cls-78 {
        fill: #dfdbd7;
      }

      .cls-79 {
        fill: #d6d2ce;
      }

      .cls-80 {
        fill: #d6cfc9;
      }

      .cls-81 {
        fill: #d6ccc1;
      }

      .cls-82 {
        fill: #171717;
      }

      .cls-83 {
        fill: #161616;
      }

      .cls-84 {
        fill: #070706;
      }

      .cls-85 {
        fill: #181818;
      }

      .cls-86 {
        fill: #95581a;
      }

      .cls-87 {
        fill: #95581b;
      }

      .cls-88 {
        fill: #a2a2a2;
      }

      .cls-89 {
        fill: #96591b;
      }

      .cls-90 {
        fill: #96591c;
      }

      .cls-91 {
        fill: #965a1e;
      }

      .cls-92 {
        fill: #38b5fe;
      }

      .cls-93 {
        fill: #282828;
      }

      .cls-94 {
        fill: #79d2d7;
      }

      .cls-95 {
        stroke-linecap: round;
        stroke-linejoin: round;
        stroke-width: 10px;
      }

      .cls-95, .cls-96 {
        fill: none;
        stroke: #565656;
      }

      .cls-96 {
        stroke-width: 8px;
      }

      .cls-96, .cls-97 {
        stroke-miterlimit: 10;
      }

      .cls-97 {
        fill: #fedd59;
        stroke: #fedd59;
        stroke-width: 6px;
      }
    </style>
  </defs>
  <g id="Enfants">
    <path class="cls-50" d="M104,103.3214c3.1-.4,6.4,.7,9.1-1.7,3.4-.8,6.1,.2,8.4,2.8-.7,2.4-3,3-4.7,4.3,1.9-.9,3.6-2.2,5.5-3,1.1-.5,2.1-1.1,3.3-1.3,1.8,0,3.5,.2,5,1.3,.8,2.8-1.3,4-3.1,5.1-1.8,1.2-3.4,2.7-5.3,3.9-.4,0-.5,.2-.4,.6,.1-.3,.3-.5,.7-.7,4.7-3.8,10-6.5,15.3-9.4,1.4-.6,2.8-1.3,4.4-.6,2.9,4-.9,5-3.1,6.5-1.2,.8-2.3,2.1-4.1,1.8,1.8,.5,2.8-1.1,4.2-1.7,2-.9,3.7-2.5,5.9-3.3,1.7-.6,3.6-1.2,4.6,.7,1.2,2.1-.3,3.6-2,4.7-1.7,1.2-3.6,2-5.4,3.1-10.2,6.2-20.5,12.3-30.9,18.3-.4,.3-.8,.5-1.3,.8-.4,.2-.8,.6-1.2,.8,.5,0,.8-.5,1.3-.7,.6-.3,1.1-.6,1.7-1,5.2-3.2,10.6-6,15.8-9,.7-.4,1.5-.9,2.3-1.2,1.9-.6,3.9-1.1,5,1.1,1,2-.5,3.3-1.9,4.3-4.3,3.2-9.1,5.8-13.6,8.7-1.7,1.1-3.5,2.2-5.3,3.3,2.1-.6,3.8-1.7,5.7-2.6,8.1-3.9,16.3-7.6,24.8-10.9,1.5-.6,2.9-1.2,4.5-1.3,1.4,0,2.9,0,3.6,1.6,.6,1.3-.1,2.4-.9,3.3-2.8,3.3-5.8,6.5-10,8.1-.4,.3-.9,.5-1.3,.7-.4,.2-.8,.6-1.3,.8,.6,0,.8-.5,1.3-.7,.6-.3,1.2-.6,1.8-.9,5-2.4,9.6-6,15.6-5.8,1.5,1.1,1.9,2.4,1.4,4.2-.7,1.3-2.1,1.7-3.2,2.5-1.6,1.2-5.9,.6-3.1,5,.9,1.4-1.5,3.3-3.2,4.3-5.8,3.4-11.4,7.3-17.6,10-.7,.4-1.5,.8-2.2,1.2,1.1-.4,2.1-1.1,3.2-1.6,8-4,16.6-6.8,25-9.6,1.5-.5,2.9-1,4.5-.4,1.2,.8,1.7,2,1.7,3.4-1.9,3.9-7.1,5-8.3,9.6-.1,.4-.7,.7-1.3,.8,.7,.3,1.1-.4,1.6-.6,1.1-.5,2.2-.9,3.5-1,1.4-.1,2.8,0,3.5,1.6,.6,1.5-.1,2.7-1.3,3.6-2.5,1.9-5.2,3.4-8,4.7-1.2,.6-2.2,1.5-3.5,2,1.3-.3,2.1-1.4,3.3-1.9,.3-.1,.6-.3,.9-.5,2.1-.8,3.8-2.6,6-3,2.9-.5,5,.1,3.8,3.8-.3,.4-.7,.7-1.2,1-2.7,1.2-5,3-7.6,4.3,2.5-1.1,4.5-3,7.1-3.9,.7-.2,1.3-.3,2-.1,2.9,1.7,1.1,3.3,0,5-.4,.6-1.4,.9-1.4,1.8,.8-.3,1.5-.8,2.2-1.2,1.8-1.1,3.4-3,5.9-2.2,1.3,.8,1.5,2,1.3,3.4-1.1,2.3-2.2,4.6-3.6,6.8-.9,.6-1.8,.7-2.9,.5-1.7-1.2-3.5-.5-5.3-.1-2.4-.2-4.9-.1-7.2-.9-.8-2.4-2.3-1.1-3.7-.7-7.4-.6-15-.5-22.1-3.4,2.4-4.2,7.5-4.3,10-6.6-4.3,1.7-9,5.1-14.8,5.6-2.7-2.2-5.5-1.3-8.2,.1-1.9,.3-3.6,.1-4.8-1.6-.2-2.8,2.3-3.2,4-4.1,7.9-4,15.5-8.6,23.7-12,.5-.2,.9-.5,1.4-.3-.5-.4-1,0-1.4,.3-9,4.5-18.5,7.9-27.4,12.6-.6,.3-1.3,.6-1.9,.8-1.9,.5-4,.8-5.2-1.1-1.4-2.2,.6-3.5,2.1-4.6,4.2-3.3,8.9-6,13.5-8.8,.6-.5,1.3-.5,1.9-1-.8,.2-1.5,.6-2.2,1.1-4.8,3.2-9.9,5.7-15.1,8.3-4.4,2.2-9.7,.4-13.9,3.2-.8,.5-2-.1-2.6-1.2-.5-1-.3-2.1,.4-2.9,1.1-1.4,2.6-2.3,4.1-3.2,13-8.7,26.2-17.1,39.4-25.7,.5-.3,1.1-.4,1.4-.9-.4,.3-.9,.6-1.3,.8-19.1,9.2-37.8,19.3-56.2,30-1.6,1-3.2,2.2-5.2,2.1-2.5-.7-2.6-2.5-2-4.6,.7-2.5,1.8-4.9,3.7-6.8,1.8-1.4,3.7-2.5,5.7-3.6,2.1-1.2,4.3-2.2,3.8-5.4-.3-1.6,1.4-2.6,2.6-3.6,4.7-4,9.6-7.8,15.2-10.6,.4-.3,.8-.5,1.3-.7,.5-.3,.9-.8,1.6-.6-.8-.5-1.1,.4-1.7,.6-.6,.3-1.2,.6-1.7,.9-3.4,3.3-7.3,.8-10.8,.6-1.9-.1-1.7-2.6-1-4.4,6.3-5.2,13.4-9.2,20.1-13.9,.5-.4,.9-.9,1.6-1-.9,0-1.3,.8-2,1.2-2.9,1.5-5.3,3.9-8.3,5.3s-5.1,.8-5.4-2.9c.2-.8,.6-1.4,1.1-1.9,4.9-2.7,8-7.5,12.6-10.6,.4-.2,.9-.4,.9-1-.5,.1-.9,.4-1.3,.6-1.8,.6-3.4,2.5-5.6,.9-.3-4.3001,.8-6.9001,3.7-8.6001h0Z"/>
    <path class="cls-49" d="M350.7,87.0214c2.5-.1,4.1-1.9,6-3.1,1.6,.1,2.2,1,2.3,2.4-.2,1.1-.8,1.9-1.6,2.6-1.2,1-2.6,1.6-3.6,2.8,1.1-.9,2.3-1.7,3.8-1.9,1.1-.2,2.1,0,2.8,1,1.1,1.7-.2,2.9-1.1,4.1-.3,.4-.8,.7-1.1,1.1,.6,.1,1-.4,1.5-.5,1.2-.2,2.4-.6,3.5,.2,2.6,1.8,2.6,1.9,6,.4,3.1,1.3,5.4,3.3,6.7,6.4-2.5,2.5,1.6,3.7,1.2,5.7-1.9,4.7-4.8,8.6-9,11.6-1.2-.3-2.2-1-3.3-1.5-3.4-1.4-4.1-3.7-2.2-6.9,.6-1,1.4-2,2.5-2.6-1.3,.2-2.4,1.2-3.7,1.2-2.5,0-4.8,.4-7,1.6-2.1,0-3.8-1-5.4-2.3-.6-.9,1.9-3.9-1.9-2.6-.7,.2-1.2-.9-1.8-1.4-.4,2.5-2.4,3.7-4.2,5.1-5.6,4.3-10.8,9.2-16.4,13.7-.4,.3-.8,.7-1.2,1,.2-.1,.4-.3,.6-.4,.6-.3-.2,0,.4-.3,5.9-3.9,12.1-7.5,18.1-11.4,1.7-1.1,3.4-2.5,5.7-2.3,1.7,.5,2.6,1.6,2.4,3.4-3.8,5.1-9.5,7.9-14.1,12-.3,.3-.6,.3-.9,.2,0,.1,.2,.2,.4,.2,.3-.1,.6-.3,.9-.5,2.6-2.3,5.4-4.3,8.3-6.1,1.8-1.1,3.8-1.8,5.9-.4,.6,1,.1,1.9-.4,2.8-.9,1.1-1.9,2-3.1,2.6-1.7,.7-2.8,2.3-4.6,2.7,1.6-.1,2.5-1.8,4-2,2.9-.3,3.4,1.5,2.4,3.5-.9,1.7-1.3,2.4,1.1,2.2,.6,.9,.6,1.9,.3,3-2.2,3.7-5.5,6.2-9.2,8.2-1.3,.4-2.5,.4-3.8-.3-1.5-2.2,.3-3.9,1.1-5.7,.2-.4,.7-.7,.6-1.3-.4,.3-.9,.5-1.3,.8-2,1.1-4.1,1.3-6.5,1-4.3-.5-6.9,3.6-10.7,4.7-3.2,.4-6.4,1.1-9.4-.8-.6-1-.1-1.7,.8-1.9,4.2-.9,6.7-4.1,9.7-6.7-3.8,3.5-8.8,5.2-12.7,8.5-1.9,1-3.8,1.8-5.5-.4,2.8-7.8,9.9-11.7,14.3-16.7-2.5,2-6,4.5-9.4,7.2-1,.8-2.1,1.5-3.3,.7-1.4-1-1.2-2.4-.7-3.8,1-2.7,3.3-4.5,4.9-6.7,.4-.5,1.2-1.2,.7-1.8-.5-.5-1.2,.2-1.8,.7-1.5,1.1-2.5,3.8-5.1,1.7-1.1-3.8,.8-7.6,0-11.4,.5-2.1,1.7-3.6,3.3-4.9-2,1.1-3.8,2.5-5.5,4-.4,.3-.8,.7-1.2,1-2.2,1.3-4.4,2.6-7.2,1.7-.1-1.1-1.2-1.3-2.5-.9-4.2,1.2-7.7-1-11.4-2.4-1.6-1.9-1.4-4-1-6.1,.7-2.3,.9-4.8,2.4-6.8,2.1-2.1,4.4-3.8,7.6-3.5,1.7,1.4,.2,2.6-.3,3.9,.9-1.2,1.7-2.5,2.8-3.6,.9-.9,1.6-1.8,2.4-2.7,3.1-2.5,7.1-3.1,10.5-5.1,.9-.5,1.8-.9,2.9-.7,1,.5,1.5,1.3,1.6,2.4-1.4,3.8-4.3,6.5-7,9.4-.4,.4-.9,.8-1,1.4,.3-.5,.6-.9,1-1.2,3.5-2.5,6.1-6.1,10.6-7.2,1.1,.1,1.9,.6,2.4,1.5,.3,1.1-.3,2-.7,2.9-.5,1-1.5,1.6-2.1,2.5,.7-.7,1.5-1.4,2.3-2,1.1-.8,2.2-1.5,3.6-1.8,1.4-.2,2.4,.4,3.2,1.5,1,3.4-2.1,4.8-3.5,7.1-1.2,1.9-2.7,3.5-3.9,5.3,4.5-4,8.8-8.3,14.5-10.8,8.7001,.1,15.8001-4.8,23.3001-8.2h0Z"/>
    <path class="cls-8" d="M300.2,145.9214c4.5-.2,3.5,3.1,3.8,5.7,.1,.8,.4,1.6,.6,2.3,.2-.6,.6-1.3,.6-1.9-.1-4.4,2.8-6.5,6.2-8.3,.8-1,1.8-1,2.9-.8,.3,.1,.6,.3,.9,.5,1.7,1.5,1.7,3.3,.6,5.1,1.1-1.3,1.8-3.2,3.8-3.5,1.1-.2,2.5-.1,2.7,1,1.2,5.3,2.3,.9,3.3,0,.8-.7,2.1-1.5,2.7-.9,2.8,2.5,4.6-.5,6.9-1,4,.3,8-.2,12,.7,2.9,1.2,1.3,5.5,4.4,6.6,.7,.7,1.1,1.6,1.1,2.6-.9,2.1-1.3,4.1,1.5,5.1,2,2,2.5,4.6,2.8,7.2-.7,1.9-.4,3.5,1.6,4.4,1.5,1.9,2,4.3,2.4,6.6,.6,2.8-.4,4.3-3.5,3.3-.3-.2-.7-.4-.8-.7-1.2-4.6-2.2-.6-3.2,.1-1.3,1-2.7,1.5-4.3,.7-.9-.7-1-1.9-3.1-1.4-4,.9-8.3,1.2-12.2-1.2-.7-.7-1.2-1.7-1.7-2.6-4.5-7.7-8.8-9.2-17.3-5.9-.6,.3-1.3,.5-2,.6-3.5,.4-6,2.5-7.6,5.4-1.2,2.2-2.7,4-4.8,5.2-5.3,.4-10.1-1.9-15.2-3-2.6-.6-3-2.7-2-4.9,2.8-5.9,5.5-11.9,10-16.9,1.7-.6,2.4-1.9,2.4-3.6,.9-2.5,2-5,4.5-6.5h0Z"/>
    <path class="cls-6" d="M315.1,143.8214c-1.2,0-2.5,0-3.7-.1-12.9-.7-12.8-.7-11.5-13.5,.5-4.8,.6-9.7,1.2-14.5,.4-3-1-2.7-2.9-2-3.8,1.3-7.6,2.6-11.4,3.7-5.9,1.8-8.1,.7-9.6-5.1-.8-3.1-1.5-2.9-3.4-.9-8.7,8.8-17.8,17.1-27.5,24.7-5.2,4-5.7,9.3-6,15.1-.1,1.7,1.3,5.1-1.8,4.9-2.3-.2-1.1-3.4-1.5-5.3-.1-.3,.2-.7,.1-1-.1-.9,.8-2.2-.5-2.7-.3-.1-1.1,1.1-1.7,1.7-.5,.5-.8,1.1-1.4,1.5-1.3,1-2.3,3.4-4.2,2-1.9-1.5,.2-3,1-4.5,.4-.6,1.7-1.1,1.1-1.9-.6-.8-1.5,.1-2.3,.4-1,.3-2,.7-3,1-.8,.2-1.3-.3-1.7-.9-.6-1-.2-1.6,.7-2.1,.6-.3,1.2-.7,1.8-.9,20.1-7.5,32.3-24.9,47.9-38.1,1.7-1.4,1.1-2.9,.5-4.2-2.3-5.2,.3-7.2,4.7-9.3,7.3-3.3,14.7-6.1,22.1-9.1,2.2-.7,2.9,.1,2.3,2.2-3.1,2.4-7,3-10.4,4.8-1.6,1.2-3,2.9-5.3,2.3-2.8,.5-5.1,1.9-7.4,3.3-2.8,1.4-1.3,4.2-2,6.3,0,2.1-.2,4.3,.9,6.2,1.8,4.9,5.2,5.5,9.5,3.4,1.2-.6,2.4-.4,3.6-.2,2.3-.2,4.4-.7,6.2-2.1,1.8-.8,3.5-1.6,5.1,.3,1.7,4-.8,8.1,0,12.1,2.1,4.4-1.3,8.7-.2,13.2,.4,1.6,.1,3.4,.6,5.1,1.4,.3,2.8,.4,4.1-.4,1.2-.6,2.4-.7,3.3,.5,3.1,.1,6.2,.3,9.3,.4,5.6-1.6,11-1,16.3,1h4c4.1-.7,7.3-2.5,8.1-7.1v-3c-.4-3.2-1.7-6.4,.1-9.6,.5-.6,.7-1.2,.2-2-.9-2-.4-3.9-.2-5.9,0-1.5-1.1-2-2.1-2.7-.8-1.5-.4-2.3,1.4-2.3,1.9,.1,3.2,1.1,4.7,2.1,3,1.5,5.5,3.6,7.7,6,1.7,2,3.8,3,6.4,2.2,2.7-3.5,5.3-7,8-10.4,1.8-2.3-.5-4-.9-5.9l-5.9-6c-4.9-2.2-8.3-5.9-10.7-10.6-.7-.7-1.3-1.4-2-2.2-.1-3.1,1.3-4.2,3.6-1.9,6.7,6.6,13.3,13.2,19.8,20.1,3,3.2,1.7,6.6-1,9.3-3,2.9-3.2,5.4-1,9,4,6.7,7.9,13.5,11,20.6,3,6.7,8.3,8.5,14.7,9.1,1,.1,2.1,0,3.1,.1,1.5,.1,3.6,.1,3.4,2.2-.1,1.6-2,1.8-3.4,1.7-4.5-.3-9.5-1.1-2.5,4.7,.9,.7,1.6,2,.4,3.2-1.3,1.2-2.2,.2-3.1-.6-1.7-1.6-3.5-3.2-5.3-4.8-1.7,2.6-1.2,5.6-1.5,8.5-.1,1,0,2.1-.2,3.1-.2,1.5,.6,4.1-2.1,3.8-2.4-.3-2.1-2.8-1.7-4.3,3.1-11-.7-20-7.2-28.7-3.8-5.1-6.2-11.2-9.1-16.9-1.2-2.3-1.8-3-3.6-.3-3.7,5.4-4.5,5.4-9.7,1.3-2.2-1.8-4-4.2-6.9-5-.2,2.9-.4,5.8-.5,8.7-.1,4.2-.1,8.4,0,12.5,0,2.2-.1,4.2-1.9,5.7-1.2,1.1-2.5,2.2-4.3,1-4.5-.2-9-.4-13.5-.6-6.4001,.7-12.9001,.4-19.2-1.4h0Z"/>
    <path class="cls-6" d="M312.9,169.3214c10.7-5.5,16.6-3.1,21.9,8.8,3.1,3.6,7.1,1,10.7,1.4,1.3,.1,2.7-.4,4.1,0,1.3,.5,2.4,.3,3.6-.4,1.6-.8,3.1-1.2,4.6,.3,1.4,.7,3.2,2,2.4-1.3-.7-2.5-1.6-4.8-2.4-7.3-1.4-1.3-1.6-2.9-1.4-4.7-.9-2.2-1.8-4.5-2.7-6.7-2-1.5-1.9-3.6-1.8-5.8-.2-.7-.5-1.3-.7-2-1.3-2.2-3.6-4.6,1.3-5.2,5.2,10.4,8.9,21.3,11.5,32.7,.8,3.7-1.3,4.9-4.9,4.6-9.2-.9-9.3-.8-8.7,8.3,1.2,16.1,3.1,32.2,2.1,48.4-.2,3.7,2.5,2.5,4.3,2.6,1.5,.1,3.7-.5,3.7,1.7,0,2.3-2.4,1.4-3.7,1.5-7.3,.4-7.5,.2-7.3-7.4,.5-16.9-1.2-33.7-2.3-50.5-.3-4.4-2.6-5-5.7-3.6-5.3,2.5-8.1,.5-9.9-4.5-1.5-4.5-2.9-9.4-8.8-9.6-6.3-.2-10.8,3.1-13.9,8.4-.6,1.1-1.2,2.1-1.6,3.3-1.1,2.8-2.5,3.5-5.6,2.3-6.9-2.7-6.9-2.5-9.9,4.5-7.5,17.7-15.2,35.4-22.8,53-.9,2.1-1.7,4.9-4.4,4.5-4.1-.5-8.4-.3-12.1-2.6-.9-.6-.7-2,.6-2.4,1-.2,2,0,3.1,.1,8.7,1.3,8.8,1.4,12.3-6.6,7.2-16.5,14.2-33.2,21.4-49.6,1.4-3.1,1.4-4.2-2.3-5-8.6-1.8-9.3-3.3-5-11,4.2-7.6,8.7-15,13.2-22.4,1-1.7,2-4.3,4.4-1.2-1.2,2.3-2.4,4.5-3.5,6.8-.7,1.2-.5,3-2.3,3.5-3.7,5.3-6.6,11-9.7,16.6-1.5,2.7-1,3.9,2.3,4.4,4.8,.7,9.5,2,14.2,3,4.1-1.5,4.3-6.5,7.9-8.6,1.2-.8,1.9-2.5,3.8-2.3h0Z"/>
    <path class="cls-87" d="M169.4,37.6214c-.4-2-.8-3.9-1.2-5.9-.3-.6,.6-2.3-1.3-1.2-2.1-3.2-4.5-5.8-8.7-3-.4,.4-.8,.6-1.3,.4-1.1-.7-1.6-1.8-1.8-3.1,.7-1.5-.4-1.3-1.3-1.3-2.3-3.6-1.8-6.2,1.5-8.7,1.4-1,3.1-1.6,4.8-2,1,0,2,0,2.7,1,2.4,3,2.3-1.6,3.8-1.2,2,0,4.2-.2,5.2,2.3,.1,.8-.3,1.4-.7,1.9,.1,.4-1.5,.5-.1,1,2.3-.4,3.1-3.7,6-3-.6,5.8,3.1,1.4,4.7,1.9,2.7,2.7,1.4,5.1-.4,7.5-.2,1.2-2.9,1-1.7,3,1.1,.7,2.2,1.3,2.8,2.5,.6,.3-1.1,1.7,.3,1.3,1.9-.5,3.4-2.1,5.6-1.8,.7,.3,1.2,.8,1.6,1.4,.6,3.6-2.5,4-4.6,5.3,3.9-.8,3.9,1.6,3.6,4.3-.5,1.5-1.4,2.8-1.7,4.3-.5,2.6-2.3,4.9-1.8,7.7-2.2,2.1-4,.9-5.6-.9,0-2.2-1.2-2.1-2.7-1.3-.9,.4-1.7,.5-2.7,.4-.9-.2-1.8-.4-2.7-.6-1-.8-.1-3.4-2.6-2.9-.5-.9-.9-1.8-1.4-2.7,1.8-1.6,.4-4.5,1.7-6.6h0Z"/>
    <path class="cls-89" d="M97.2,30.6214c-2.5,1-2.4,.9-1.2,2.6,.9,1.3,1.5,2.7-.3,4-1.3,.9-2.5,1.7-3.8,2.6-2.6,4.7-8.9,7.3-13.5,5.4-2.4-1-3.8-2.6-1.4-5.1,2.9-1,5.8-1.7,8.7-2.7,.6-.2,1.1-.3,1.7-.5-.7-.2-1.3,.3-1.9,.4-2.3,.5-4.4,2-6.9,1.5-1.5-.5-3.3,.2-4.8-1-1-.1,1.5-2.6-1.4-1.8-2.3,.6-3.4-1-2.9-3.4,3.6-3.3,8.2-4.6,12.8-6.1,.6-.2,1.4-.1,1.7-.9-.5,.5-1.1,.6-1.8,.7-1,.2-2,.1-3-.5-1.1-1-2.6-1.9-2-3.8,1.4-1.3,3.3-.9,5-1.2-1.9-.4-3.7-1-5.4-1.8-2.1-.9-4.2-2-3.1-5,1-1.2,2.3-1.1,3.7-1.1,1.6,0,3.5,1.9,4.5,.7,.6-.8-.6-3.1-1.3-4.7-.2-.5-.4-.9-.5-1.4,1.3-2.6,3-1.9,4.2-.1,1.2,1.7,2.6,2.6,4.5,3.1,.3-.9,1.2,2.7,.8,0-.7-4.1,.2-6.1,4.6-5.8,3.3,1.7,5.6,3.9,4.8,8-.4,4.3,.4,8.9-3.2,12.6-.9,.9-.5,1.2,3.3,1.2,.9,2.1-.5,3.1-1.9,4.1h0Z"/>
    <path class="cls-9" d="M43.9,38.1214c.5-2-1.2-5.7,1.5-5.9,3.2-.2,1.7,3.5,1.8,5.4,.3,9.5,3,17.5,10.6,24.1,11,9.6,21.1,20.2,31.7,30.3,.4,.4,.8,.7,1.1,1.1,.9,1,2.4,2,1.1,3.5-1.4,1.6-2.5,.2-3.5-.7-4.6-4.3-9.2-8.5-13.6-12.9-9-8.6-17.6-17.4-26.4-26.1-3.1-3.1-8.8-3.6-13.3-5.2-1.1-.4-2.3-.6-3.5-.9-1.2-.4-1.4-1.5-1.1-2.5s1.3-1,2.2-.9c.9,.1,1.7,.4,2.6,.5,1.4,.1,2.7,.2,4.1,.3-.6-1.2-1.2-2.5-1.8-3.7-.5-1.3-1.1-2.5-1.5-3.9-.3-1.2,0-2.6,1.2-3.2,1.4-.8,2.1,.6,2.9,1.4,.1,.1,.2,.3,.3,.4,1,1.3,1.8,4,3.1,3.6,1.4-.4,.2-3,.5-4.7h0Z"/>
    <path class="cls-7" d="M99,12.8214c-.7-3-2.2-5.4-4.8-7.2-2.9-1.6-4.5-.5-4.8,2.6-.1,1.1,.6,2.4-1,3-2.4,1.5-3.8,.8-4.4-1.8-.4-1.7-.9-3.6-3.3-1.9-1.5,2.5-4.6,3.4-6.1,5.8-2.9,4.2,1.5,6.3,2.6,9.3,1,.8,2.5,1.2,2.2,3-2.4,3.2-7.7,2.3-9.4,6.4-1.6,4.1,1.6,4.7,4.2,5.8,1.5-.4,3.1-1.9,4.5,.3,.4,.8,.3,1.4-.5,1.9-3.8,2.7-1.5,3.8,1.3,4.3,4.9,.8,9.1-1,12.5-4.5,2.6,.6,1.8,2,.6,3.3-5.2,6.4-15.2,6.3-20.3-.2-.2-.3-.4-.6-.6-.8-7.3-6.2-7.8-10.6-1.5-17.2,1.2-1.2,1.2-1.9,.7-3.4-3.3-9.5,2.6-17.6,12.6-17.4,1.8,0,2.4-.7,3.4-1.6,3.8-3.2,7-3.1,10.4,.5,3.5,3.6,5,8.3,6.8,12.8,.5,1.2,.8,2.5-.6,3.2-1.9,.9-2.4-.7-3-2-.5-1.3-1-2.8-1.5-4.2h0Z"/>
    <path class="cls-7" d="M96.5,188.2214c-1.5,12.6-3,25.1-4.5,37.7-.2,1.4-.5,2.9-1.9,3.4-1.9,.7-2.8-1-3.7-2.2-7-9.3-12-19.9-18.1-29.7-.5-.9-.9-1.9-1.5-2.7-.4-.6-.9-1-1.4-1.5-.2,.5-.5,1.1-.7,1.6-.9,2.2-.3,6.5-3.7,5.5-3.1-.9,.2-4.1,.3-6.2,.2-2.4,.8-5.2,3.9-5.4,2.7-.2,3.5,2.4,4.7,4.3,5.2,8.8,10.3,17.6,15.5,26.4,.7,1.1,1.2,3.2,2.5,2.9,1.5-.3,.6-2.4,.8-3.6,1.4-10.3,2.7-20.6,4-31,.2-1.4,.3-3,2.3-2.8,1.7,.5,2.1,1.7,1.5,3.3h0Z"/>
    <path class="cls-9" d="M179.9,24.0214c2.3-1.8,2.2-4.1,1.3-6.6-1.7-.2-3.2-1-4.6-1.9-2.4,.5-2.8,4.5-6.1,3.7-.9-1.1-.9-2.1,.2-3.1,.2-.2,.4-.4,.6-.6-.6-2.4-1.7-3.8-4.3-2.2-.4,.7-.8,1.4-1.2,2.1-.7,1.1-.4,3.6-2.7,2.7-2-.9-.3-2.6-.3-4,1.6-3.1,3.4-7.6,7.2-6.1,4.5,1.8,9.3,3.6,13.3,6.5,1.5,1.1,2.2,3.3,1.8,5.2-.6,3.3,0,4.9,3.6,6.1,5.8,2,7.4,7.6,5,13.8-.6,1.7-1.9,3.1-1.4,5.3,1,4.8-.9,8.6-5.4,10.6-3.6,1.6-9.6-.8-12.6-4.7,.6-1,1.6-1.3,2.7-1.3,1.2,.2,2.7-.1,2.9,1.7,1.5,.7,3,2,4.8,.8,1.3-2.4,3.8-4.6,1.3-7.7-.3-1.7,.4-3,1.9-3.9,1.4-3,2.4-6.1,1.3-9.5-.4-.4-.8-.7-1.2-1.1-2.1-.9-4.3,.2-6.4-.3-1.4,.1-2.4-.4-2.9-1.7-.7-1.6,.8-2.6,1.2-3.8h0Z"/>
    <path class="cls-7" d="M97.2,30.6214c.7-1.4,1.3-2.7,2-4.1,2.5-1.7,5-3.1,8-3.4,1.7-.2,3.2,.5,3.8,2.1,.6,1.5-.4,2.6-1.5,3.6-4.6,4.4-9.2,5.1-12.3,1.8h0Z"/>
    <path class="cls-84" d="M155.7,24.7214c.4,.9,.8,1.9,1.2,2.8-1.3,3.4-2.7,.7-4.1,.1-7.2-8.1-2.5-14.4,3.7-15.8,1.4-.3,2.7-.5,3.5,1.1-.2,1.7-1.6,1.8-2.8,2.3-3.6,1.6-5.8,4-2.8,8,.9,.2,1,.9,1.3,1.5h0Z"/>
    <path class="cls-55" d="M352.3,146.5214c-4.7,.7-.5,3.6-1.3,5.2-4-.4-3-3.5-3-5.9,1.4-.3,2.9-.7,4.3-1-.1,.5,0,1.1,0,1.7h0Z"/>
    <path class="cls-80" d="M169,47.2214c1-1.4,2.6-1,4-1.1-.5,1.3-1,2.7-1.4,4-.1,.6-.2,1.2-.3,1.8-.8-1.6-1.6-3.1-2.3-4.7h0Z"/>
    <path class="cls-88" d="M152.9,27.6214c1.4-.1,2.8,2.2,4.1-.1,.4,0,.8,0,1.2,.1-2.1,7.8-4.4-.1-6.7,.1,.5-.1,.9-.1,1.4-.1Z"/>
    <path class="cls-51" d="M167.2,87.1214c-.7,1.2-1.2,2.7-2.9,2.4-.2,0,.5-1.7,1.3-2.3,.5,0,1-.1,1.6-.1h0Z"/>
    <path class="cls-48" d="M172.5,180.1214c2.2,6.2,1.7,7.2-3.3,6.4,.3-2.5,.6-5,3.3-6.4Z"/>
    <path class="cls-23" d="M123.4,180.3214c0,.2,0,.4-.1,.7-2.4-.3-4.8-.7-7.3-1,2.6-1.5,5.2-5,7.4,.3h0Z"/>
    <path class="cls-44" d="M164,171.7214c.4,.7,.8,1.3,1.1,2-3.2,.2-5.5,2.7-8.3,3.7-.6,.2-1.2,.6-1.8,0,.4-.4,.7-.8,1.1-1.1,2.6-1.5,5.3-3,7.9-4.6h0Z"/>
    <path class="cls-38" d="M153.8,170.9214l1.1,1.1c-.1,.1-.2,.3-.3,.4-1.9,1-3.7,2.2-6,2.4,.9-2.4,3.3-2.8,5.2-3.9h0Z"/>
    <path class="cls-35" d="M111,134.4214c.3,.3,.6,.6,.9,.9-.1,.1-.2,.3-.3,.4-1.8,.8-3.1,2.6-5.4,2.2,1.1-1.8,2.9-2.7,4.8-3.5h0Z"/>
    <path class="cls-36" d="M141.2,139.6214l1,1c-.1,.1-.2,.3-.3,.4-1.8,.8-3.3,2.4-5.5,2,1.2-1.8,3-2.6,4.8-3.4Z"/>
    <path class="cls-34" d="M99.2,138.2214l-1-1c.1-.1,.2-.3,.3-.4,1.7-.9,3.2-2.5,5.3-2.3-.7,2.3-2.9,2.7-4.6,3.7Z"/>
    <path class="cls-37" d="M131.8,159.4214c.4,.4,.8,.8,1.1,1.2-.1,.1-.2,.3-.3,.4-1.5,.6-3.6,2.5-4.3,1.1-.7-1.3,2-2.1,3.5-2.7h0Z"/>
    <path class="cls-31" d="M120.2,162.4214l-1-1c.1-.1,.2-.3,.3-.4,1.4-.7,3.4-2.5,4.2-1.2,.6,1-2.1,1.9-3.5,2.6h0Z"/>
    <path class="cls-27" d="M166.2,186.3214c-1.5,.3-2.9,.2-4.2-.5,1.4,.5,3.3-3.5,4.2,.5Z"/>
    <path class="cls-33" d="M154.3,184.8214c-1.1-.1-2.2-.3-3.3-.4,1.1-1.1,2.5-2.1,3.9-1.7,.8,.2-.5,1.3-.6,2.1h0Z"/>
    <path class="cls-42" d="M121.3,114.4214l1,1c-.1,.1-.2,.3-.3,.4-1.1,.6-2.4,2.3-3.3,1.1-.6-.7,1.3-2,2.6-2.5h0Z"/>
    <path d="M221.7,22.0214c-1-.6-1.6,.1-2.2,.7-.8,1-1.4,2-2.2,2.9-2.5,2.9-3.7,6.9-7.2,8.9,1-3.8,1.4-7.8,3.8-11.1,.7-.9,.9-2.1-.1-2.8-1.3-.9-2.3,.1-3,1.1-1.4,2.2-2.7,4.5-4.1,6.7-.3,.5-1,.9-1.5,1.3-.2-.6-.5-1.2-.7-1.8-1-2.7-.9-5.5-1-8.2,0-1.1-.5-2.1-1.7-2.3-1-.2-1.9,.7-1.9,1.4-.1,5.9-2,12.3,.4,17.5,1.7,3.5,.8,5.1-.7,7.5-9.6,15.4-20.4,29.8-32.7,43.2-.5,.3-.9,1.4-1.6,.1,6.6-11,8.8-22.8,5.7-35.3-.4-1.5-.2-3.2-1.2-4.6-.6-1.2-1.2-2.4-1.6-3.7-1.8-2.7,.5-4.2,1.7-6,.7-2.1,0-4.1-1-5.9-.4-.7-.8-1.4-1.3-2-4-4.9-5.2-5.2-10.1-2.8,.2,3.5-1.5,2.6-3.3,1.4-.9-.5-2,.1-2.8-.7-17.6-9.3-35-2.6-49.1,8.7-4,3.2-6.6,7.7-7.8,12.7-4.8,19.2-4.4,39.7,18.5,52.6,2.6,1,5.2,1.9,7.7,2.9,1.1,2.1,3.1,.6,4.6,1.1,1.7,.2,3.4,.4,5.1,.6,2.5,2,4.9,.5,7.4,0,1.4-.3,2.8-.5,4.1-.8,2.7,.6,5-.2,6.9-2.1,.6-.5,1.2-1.1,2.1-.9-.7,0-1.3,.2-1.7,.7-.2,.2-.4,.5-.6,.8,2.1,9.2,4.1,18.4,6.8,27.4,.4,1.2,1,2.2,2,2.9,.6,1.2,1.4,2.4,1.1,3.8-.4,4.5,.9,8.4,3.9,11.7,.4,1.2,.8,2.5,1.2,3.7,1.1,8.2,3.9,15.8,7.5,23.2,1,1,1.1,2.2,1,3.5-.9,2.2,.6,5.7-3.3,6.4-1-.1-2-.1-2.9-.2-1.3-1.1-2.8-.1-4.2-.5-2.6-.3-5.1-.7-7.7-1-1.1-.3-2.1-1.1-3.3-.4-7.3-.9-14.5-1.8-21.8-2.7-1.4-2.2-3.4-.9-5.1-.9-2.7-.2-5.2-2.1-8-.7-1.8,.1-3.5-.2-5.2-.9-.6-.7-1.4-1.1-2.2-1.2-13.1-2.2-26.1-4.8-39.3-6-2-4.1,.9-6.8,2.6-9.9,2.1-2.3,3.7-4.9,5.1-7.6,3.3-6.9,7-13.7,9.9-20.8,3.1-3.1,4.9-6.9,6-11.1-.1-.4,0-.6,.4-.7,3.3-2.8,5.7-6.1,6.6-10.4,1.3-2.7,2.6-5.3,4-8-1.8-2.6-3.3-1.8-4.7,.4-12.5,19.7-23.6,40.1-33.4,61.2-3.4,7.3-1.5,10.8,6.6,12.1,19.5,3.2,39.1,6.4,58.7,9,4.9,.6,6.3,2.2,6.6,6.8,1.4,18.6,3.1,37.1,1.7,55.7-.6,8.6,2.9,11.7,11.6,11.1,1.5-.1,3.6,.2,3.7-1.9,.1-2.4-2.2-1.6-3.6-1.7-8.1-.4-9-1-8-8.9,2.3-18.7,.1-37.2-1.8-55.7-.4-4.2,1-4.1,4.1-3.7,7.9,1.1,15.9,2.1,23.8,3,6.7,.8,9.3-2.1,8.1-8.8-.3-1.7-.9-3.4-1.4-5-6.6-22.1-15-43.7-20.5-66.1-.8-3.3-.4-5.3,2-7.7,17.4-17.8,33.3-37,46.2-58.4,.5-.9,1.1-2.1,1.9-2.3,9.3-2.4,11.4-11.5,16.4-17.9,1.1-1,1.2-1.9,0-2.6h0ZM124.7,101.7214c-1.1-3.4-3.8-1.8-5.9-1.9-15.1-5-24.4-18.6-23.3-34.6,.5-8.1,1.1-16.3,6.2-23.2,2.8-.6,2.1,1.1,1.6,2.6-.4,1.2-1.9,2-1.1,3.5,10.3,4.6,24.9-.3,30.7-10.2,.5-.9,1-1.7,1.5-2.6,.4,.9,.9,1.9,1.2,2.9,4.7,13.1,12.9,19.1,25.4,18.7,2.3-.1,4.9,.1,6.5-2.2h.5c3.7,14.2-.7,26.4-9.9,37-8.9,10-20.2,13.4-33.4,10h0Z"/>
    <path class="cls-90" d="M168,54.5214l-.2,.2-.3-.2c-1.9-1.8-4.4-.6-6.5-1.1-1.4-.7-2.7-3.6-4.3-.2-.3-.2-.6-.4-1-.6-2.5-3.2-6.7-2.4-9.8-4.3-.9-.2-1.5-.7-1.7-1.6-2.5-4.8-5.1-9.6-5.7-15-.2-1.7-1.3-3.9,1.5-4.9,1.4,.5,3.1,.3,4.2,1.6,.2,.3,.4,.5,.7,.7,1.1,.9,2,4,3.8,.6,.9,.5,1.8,1,2.7,1.5,.1,1.4,.8,2,2.3,1.6,1.1-.1,1.6,.6,2,1.4,1.9,2.6,2.5,6.4,6.5,7.1,.6,.8,1.1,1.7,1.7,2.5,.1,3.1,.6,6.1,3.6,7.8,1,1,1,1.9,.5,2.9h0Z"/>
    <path class="cls-87" d="M102.2,48.1214c-1.9-1.6-.2-3,.5-4.2,.9-1.5-.1-1.6-1-1.8,4-5.1,9-8.6,15.2-10.5,2,.7,2.9-1,4.3-1.8,1.3-1.5,3.3-1.6,5.1-2.1,1.8,2.3-.9,3.1-1.5,4.6,1.6-1.3,2.1-3.5,3.7-4.8,.4-.3,.9-.5,1.3-.8,2.8,.5,5.1,1.1,2.3,4.6-1.1,1.4-1.7,3.2-2.6,4.9-2,4.1-7.3,4.6-9.6,8.5-1.8,1.4-4.1,.8-6.1,1.5-1.4-3.1-2.6,.2-3.8,.2-2.3,1.5-6.1-2.9-7.8,1.7h0Z"/>
    <path class="cls-79" d="M140,26.9214c-2.2,3.8,.1,7.3,1.1,10.8,.8,3.1,2.1,6.1,3.2,9.1-5-5.1-6.1-11.6-7-18.3-.5-3.2,1.6-1.5,2.7-1.6h0Z"/>
    <path class="cls-74" d="M146,48.4214c3.4-1.3,8,.8,9.8,4.3-3.8-.3-7.1-1.5-9.8-4.3Z"/>
    <path class="cls-57" d="M120,44.5214c-.1-2.9,2.1-4.5,4.1-4.9,2.4-.6,3.5-2.7,5.5-3.5-1.6,4.6-5.4,6.7-9.6,8.4Z"/>
    <path class="cls-20" d="M169.4,37.6214c-.7,2.3,3.6,5.9-1.8,6.9-2-3-3.4-5.8,1.8-6.9Z"/>
    <path class="cls-16" d="M162.2,41.5214c-1.5,1.7-3.1,2.3-4.1-.4-.8-2.2-2.4-4.2-2.4-6.7,2.6,1.9,4.7,4.4,6.5,7.1h0Z"/>
    <path class="cls-14" d="M167.5,51.9214c-1.1,1-3.1,1.5-3.3,.1-.2-2.6-2.3-5.2-.3-7.9,1.2,2.5,2.4,5.2,3.6,7.8Z"/>
    <path class="cls-24" d="M118.7,99.8214c1.2-.5,2.4-1,3.6-1.6,1.1-.5,2.2-1,3.1,.3s-.5,2.1-.8,3.1c-2.1,0-4.1-.6-5.9-1.8h0Z"/>
    <path class="cls-66" d="M110,46.2214c.4-.5,.7-1.2,1.2-1.6,1.1-1,2-3.5,3.5-2.6,1.3,.7-.9,2.5-.9,4-1.2,.1-2.5,.1-3.8,.2Z"/>
    <path class="cls-61" d="M129.8,26.6214c-.5,.7-.9,1.4-1.4,2.1-1.1,1.3-2.3,2.6-3.4,3.9-1.2-2.1,1.9-3,1.3-5,.9-1,2.1-1.3,3.5-1Z"/>
    <path class="cls-10" d="M148.7,29.8214c-.7,1.2-1.3,2.5-2,3.7-.4-1.9-3.2-2.6-2.5-5,1.5,.5,3,.9,4.5,1.3Z"/>
    <path class="cls-60" d="M156.8,53.3214c1.6-.9,1.1-3.9,1.6-3.8,1.6,.5,2.1,2.4,2.7,4-1.5,0-2.9-.1-4.3-.2h0Z"/>
    <path class="cls-65" d="M121.2,29.7214c-.8,1-1.6,2.1-2.6,3-2.1,1.8-1.3-.7-1.8-1.2,1.3-1,2.6-2,4.4-1.8Z"/>
    <path class="cls-12" d="M166.9,30.5214c.8-1.9,2.2-2.9,4.3-2.6-.3,1.8-2.3,2.4-3,3.9-.5-.5-.9-.9-1.3-1.3h0Z"/>
    <path class="cls-47" d="M153.6,33.0214c-.7,.7-1.4,1.6-2.5,.5-.7-.8-.6-1.5,.2-2.1,.8,.5,1.6,1,2.3,1.6Z"/>
    <path class="cls-43" d="M339.3,101.7214c2.4,4.4-1.4,4.9-3.8,6.1-.3,.2-1.1-.3-.4-.9,2.1-1.9,1-6.2,4.7-6.7,.8-.1-.9,.9-.5,1.5h0Z"/>
    <path class="cls-40" d="M375.4,102.7214c2.5,1.7,4.3,3.4,.9,5.9-.1-.7,0-1.7-.4-2-2.6-1.4-2.6-1.3-.5-3.9h0Z"/>
    <path class="cls-46" d="M279.1,101.9214c-.4-2.4-3.3-5.6,2-6.3-.5,2.1-.6,4.4-2,6.3Z"/>
    <path class="cls-32" d="M331,105.8214c-.7,.6-1.6,1.4-2.6,2-.3,.2-1.2,0-.6-.7,.7-.9,1.6-1.8,2.6-2.4,.7-.5,.7,.2,.6,1.1h0Z"/>
    <path class="cls-73" d="M312.9,169.3214c-3.7,2.3-6.3,5.7-8.2,9.6-.9,1.8-1.5,3.1-3.5,1.3,1.5-4.9,5.6-7.7,8.8-11.2,.4-.5,1.9,.2,2.9,.3Z"/>
    <path class="cls-56" d="M351.7,153.7214c.6,1.9,1.2,3.9,1.8,5.8-2.9-1.2-3.5-3.2-1.8-5.8Z"/>
    <path class="cls-59" d="M356.2,166.2214c.6,1.5,1.6,2.9,1.4,4.7-5.5-.1-2.2-2.8-1.4-4.7Z"/>
    <path class="cls-68" d="M357.7,179.4214c-1.5-.1-3.1-.2-4.6-.3,1.8-4.6,3.2-1.8,4.6,.3Z"/>
    <path class="cls-94" d="M294.4,156.2214c.3-1.5,1.2-2.6,2.3-3.5-.5,1.3,1.6,4.4-2.3,3.5Z"/>
    <path class="cls-6" d="M372.7,49.6214c5.8-7.5,5.3-11-2.4-16-1.8-1.1-2.2-1.6-.9-3.6,2.9-4.7,1-8.9-4.3-10.4-2.3-.6-4.9-1-7.2-.7-2.4,.3-2.2-.6-2.4-2.4-.5-5.1-5-8.7-10.2-7.9-1.9,.3-2.5,.1-3.3-1.7-3.1-7.8-10.8-9.3-16.2-3-1.5,1.7-2.1,2-4,.6-7.7-6-10.9-5.3-16,3.2-1.5,2.5-3,2.6-5.6,1.9-4.9-1.4-7.2,.3-7.7,5.4-.1,1.2,0,2.4-.1,3.7-.1,2.4,1.3,5.8-3.8,3.9-2.2-.8-3.7,1.4-4.6,3.4-1.2,2.6-1.6,5.3-1.4,8.1,.1,1,1.1,2.3-.7,3-5.3,2.2-3.5,6.5-2.8,10.3,.3,1.5,1.2,2.8,.9,4.5-1.2,9,2.7,16.7,11.1,18,6.4,1,8.6,4.5,10.8,9.2,.3,.6,.7,1.2,1.1,1.8,1,1.1,1.9,2.2,2.9,3.4h0c.4,.6,.9,1.2,1.3,1.8,.5,2.1,2.1,2.7,3.9,3.1,.8,.5,1.6,1,2.4,1.5,.6,1.5,1.7,1.9,3.1,1.8,1.2,.4,2.3,.9,3.5,1.3,1.9,2.8,4.7,2.1,7.4,1.9,9,.7,16.5-2.6,23-8.6,3.1-3.8,5.7-7.9,7.2-12.6,.6-2.1,1.3-2.9,3.8-2.9,10.5,0,15.9-9.2,11.1-18.8-.3-1.2-.9-1.9,.1-3.2h0Zm-26.1,36.9c-11.1,10.2-29.9,6.9-40.3-6.7-3.3-4.3-5.5-9.2-6.3-14.6,1.4-1.8-.6-2.9-.8-4.3-.8-8.5,.7-16.6,5-24.1,1-1.8,1.9-3.4,4.3-1.4,1.3,1,3.4,1.3,4.4,.4,3.7-3.2,7-1.2,10.9-.6,3.7,.5,7,.9,10.5,2.6,3.3,1.5,5.9-1.3,6.6-4.8,.6-2.9,1.4-2.8,3.6-1.2,17.6,13,16.7,41.5,2.1,54.7h0Z"/>
    <path class="cls-86" d="M296,20.5214c-.5-1.5-.6-2.9-.1-4.4,.9-1.8,2-3.3,4.2-3.3,.6,.4,1.1,.7,1.7,1.2,3.8,3.2,4.5,3,5.9-1.8,.2-.8,.6-1.6,.9-2.4,3.1-2.4,6.8-3.5,10.6-4,2.5,1,3.7,6.8,7.8,2.2,3.1-2,6-4.4,10-4.3,1.3,.5,1.9,1.4,1.9,2.7,.1,5.8,3,7.4,8.3,5.6,.8,1.9-.4,3.6-.6,5.4-.5,3.7,.7,5.1,4.4,3.7,.4,1.9,1.6,2.4,3.3,1.7,2.4-.9,4.9-.7,7.4-.5,.9,1-.1,2.6,2,3.5,3,1.4,1.3,4,.2,6.1-.6,3.3,1.5,3.9,4.1,4.1,.5,1.6-.5,2.8-1.7,3.3-2.9,1.3-4.7,4.2-7.8,5.1-2.4-3.7-4.8-7.4-7.3-11.1-2.5-4.2-6.5-6.2-10.7-8.1-2.3,.2-1.8,2-2.1,3.4-1.2,2.8-3.8,3.1-6.3,3.8-1.4-1,.2-3.5-2.1-4-3.5-1-6,2.5-9.4,2-1.1-3.5-2.7-3.9-4.9-.8-3.1-.9-4.6,1.7-6.8,2.9-2-3.1-4-3.2-5.8,.2-1.3,2.4-2.6,4.7-3.9,7.1-3.1,.7-3.2,3.5-3.3,5.8-.1,3.1-1,6.1-1.3,9.2-.1,.5,.1,1,.1,1.5,.1-.7-.3-1.5,0-1.9,.7-1.1-.6-3.3,1.8-3.5,.1,4.8,.1,9.6,.2,14.4-1.2,2-3.5,1.2-5.2,1.8-.3-.1-.6-.3-.9-.4-2.1-2.1-4.4-4.1-6.4-6.3-.8-1.3-.9-3-1.8-4.3-.1-2.3,4.1-2.2,3-5.1-1.2-3.5-4-6.8-1-10.7,2.8-.6,2-2.7,1.8-4.4-.2-1.6-1.1-3.2-.1-4.9,1.1-1.8,1.5-4,3.6-5.2,2.1,.4,4.3,3.8,6.2-.2,2.8,.4,1.8,2.8,2.2,4.4,.2,.6,0,1.7,.7,1.6,1.1-.1,1.1-1.3,.8-2-1.4001-3-2.7001-6-3.6001-9.1h0Z"/>
    <path class="cls-91" d="M359.9,66.1214c1.9-6.2-.3-12.3-.6-18.5,1.4-2.1,3.6-3.2,5.7-4.3,2.3-1.3,4.4-1.3,4.8,2.1,0,2.6-3.3,2.9-3.6,5.3-.4,3.6,4,2.3,4.8,4.8-1,1.6-.1,3.3-.4,5-1,5.9-5.1,8-10.7,5.6h0Z"/>
    <path class="cls-5" d="M368.8,46.3214c.6-3.5-.8-4.3-3.5-2.2-1.9,1.5-3.7,2.9-6.1,3.5-1.1-.8-.5-2.1-.9-3.1,1.3-4.9,7.5-4.2,9.5-8.4,7.4,4.1,7.9,7.1,2.2,11.5-1,.1-1.4-.2-1.2-1.3h0Z"/>
    <path class="cls-1" d="M350.9,21.1214c-1.7,.1-1.5,3.7-3.8,2.2-1.6-1.1-2.1-3.1-2-5.1,.1-2.3,1.1-4.3,2-6.3,5.7,1.5,6.4,3.3,3.8,9.2h0Z"/>
    <path class="cls-19" d="M296.5,50.9214c-.2,1.3-.4,2.7-.7,4-.3,1.3,.9,3-.8,4-.9-1.6-2.6-3.4-1.7-5.1,2-3.5,1.1-7.1,1.5-10.6,.3-2.2,.2-5.9,4.4-3.4-1.5,3.6-2.4,7.3-2.7,11.1Z"/>
    <path class="cls-4" d="M296,20.5214c2.8,2.2,3.3,5.8,5.2,8.6,1.3,1.9-.5,3.5-1.7,4.9-.4,.4-1.2,.9-1.7,.8-1.2-.1-.9-1.2-.8-2,.1-2.5,1-5.1-1-7.3-.1-1.7-.1-3.3,0-5h0Z"/>
    <path class="cls-39" d="M319.1,5.8214c-1.1,1.6-1.8,3.6-4.6,1.9-2.4-1.5-3.1,3.9-6,2.1,3.1-6.9,5.3-7.7,10.6-4Z"/>
    <path class="cls-11" d="M359.9,66.1214c8.5,.6,9.4-.3,9-8.7-.1-1.4,1-1.7,2-1.9,1.6,7.3-1.7,12.9-7.7,13-1.5,0-3.8,.5-3.3-2.4h0Z"/>
    <path class="cls-18" d="M320.7,30.5214c3.1-.9,5.3-5.8,9.4-2-2.6,3.3-5.2,6.7-9.4,2Z"/>
    <path class="cls-3" d="M363.8,31.9214c.2-2.4,1.6-5-1.9-6.4-1.6-.7,.1-2.1-.2-3.1,2.6-.3,5.3,.4,5.9,2.9,.7,2.8-2,4.7-3.8,6.6h0Z"/>
    <path class="cls-41" d="M332.1,32.5214c1.2-2.7,4.6-1.8,6.3-3.8,.3,2.5,.3,5-2.3,6.1-2,.9-3.1-.8-4-2.3h0Z"/>
    <path class="cls-67" d="M340.5,25.3214c.3-.9,.7-2.6,.8-2.4,2.1,4.2,7.6,4.4,9.7,8.5,.3,.6,.1,1.3,.2,2-3.6-2.7-7.2-5.4-10.7-8.1h0Z"/>
    <path class="cls-29" d="M284.4,40.2214c-.7,3.7,1.4,7.1,1,10.7-2.8-1.7-3.4-4.6-4-7.5-.3-2.2,.2-3.8,3-3.2Z"/>
    <path class="cls-22" d="M309,32.6214c1.2-3.4,2.4-7,6.8-2.9-1.5,2.8-3.7,3.9-6.8,2.9Z"/>
    <path class="cls-15" d="M336.9,3.7214c-3,1.9-6.9,2.4-9.1,5.7-.3,.4-.7-.8-.9-1.4,1.9-4.8,5.6-5.3,10-4.3h0Z"/>
    <path class="cls-52" d="M284.3,60.0214c2.3,2,5,3.7,6.3,6.7-3-1.6-5.7-3.5-7.3-6.7,.3-.5,.7-.5,1,0h0Z"/>
    <path class="cls-78" d="M300.1,12.9214c-1.4,1.1-2.8,2.2-4.2,3.3-.2-3.3,.2-5.6,4.2-3.3Z"/>
    <path class="cls-71" d="M289.6,25.6214c-.6,2.2-1.6,4-3.6,5.2,.4-2.3-.1-5.2,3.6-5.2Z"/>
    <path class="cls-26" d="M291.5,67.1214c1.6-.9,3.2-2.1,5.2-1.8,.5,7-3.7,.6-5.2,1.8Z"/>
    <path class="cls-58" d="M368.8,46.3214c.4,.4,.8,.8,1.2,1.2-1.3,1.1-2.6,2.1-3.9,3.2-1.4-2.9,1.9-2.9,2.7-4.4Z"/>
    <path class="cls-77" d="M284.3,60.0214h-1c-1-1.1-1.5-2.4-.9-3.9,1.8,.7,2.2,2.1,1.9,3.9h0Z"/>
    <path class="cls-54" d="M299.1,60.9214c1.8,1.2,2.7,2.5,.8,4.3-.2-1.4-.5-2.9-.8-4.3Z"/>
    <path class="cls-2" d="M189.2,30.8214c2.9,3.6,2.2,6.7-1.3,9.5,.4-3.1,0-5.1-3.7-2.9-.5,.3-1.2,.9-1.7,.1-.1-.1,.8-.8,1.2-1.3,1.7-1.8,5.1-2.1,5.5-5.4h0Z"/>
    <path class="cls-25" d="M186,44.2214c4.2,2.6,3.8,4.7-1.3,7.7-2.6-3.1,1.4-5.1,1.3-7.7Z"/>
    <path class="cls-30" d="M181.6,29.5214c2.2-1.8,4.4-2.1,6.4,.3-1.4,.7-2.7,1.5-4.1,2-1.7,.6-2.9,2.4-5,1.8,.9-1.4,1.8-2.8,2.7-4.1h0Z"/>
    <path class="cls-13" d="M176.5,15.4214c2.2-.9,3.7-.2,4.6,1.9-.7,.5-1.3,1.2-2.1,1.6-1.5,.8-3.1,1.5-4.6,2.2-.5-2,2.1-2.4,2.1-4.1v-1.6h0Z"/>
    <path class="cls-17" d="M166.9,13.1214c.8-1.3,1.7-2.8,3.4-2.1,2.1,.9,1.1,2.8,.9,4.3-1-1.4-2.6-1.9-4.3-2.2h0Z"/>
    <path class="cls-64" d="M179.9,51.1214c-1-.6-2-1.2-2.9-1.7,1-1,2.6-1.7,3.5-1.2s.5,2-.6,2.9Z"/>
    <path class="cls-75" d="M179.9,24.0214c.7,1.6-.8,2.5-1.2,3.8-.8,.2-2.1,.9-2.3,.6-.8-.9,.4-1.4,.9-1.9,.8-1,1.7-1.7,2.6-2.5Z"/>
    <path class="cls-70" d="M170.6,16.0214c-.1,1-.1,2.1-.2,3.1-1.1-.1-2.6,1.8-2.9,.6-.4-1.7,1.3-3.1,3.1-3.7h0Z"/>
    <path class="cls-69" d="M155.7,24.7214c-.4-.5-.9-.9-1.3-1.4,.6-.7,1.3-1.5,1.9-2.2,1.2,1.4-.1,2.4-.6,3.6h0Z"/>
    <path class="cls-81" d="M88.5,11.2214c.7-1.1,.7-2.2,.3-3.4-.6-1.9,.5-2.9,1.9-3.7,1.7-1,2.8-.1,3.6,1.5-4.1-.2-4.5,1.7-3.4,5.1,.4,1.3,1.6,3.8,.1,4.3-1.4,.4-2.5-2-2.5-3.8Z"/>
    <path class="cls-83" d="M130.3,90.2214c-4.2,.1-6.9-1-9.4-2.4-.8-.5-1.9-1.1-1.1-2.4,.6-.9,1.5-1.4,2.6-.8,4,2.3,8.1,2.5,12.4,1,1-.3,1.7,.1,2,1,.4,1.1-.1,2.2-1.1,2.5-2.2,.6-4.4,.9-5.4,1.1Z"/>
    <path class="cls-85" d="M150.1,70.0214c-.1,1.8-1.4,1.6-2.6,1.8-1.7,.2-3.2,.4-3.3-1.9-.1-1.5,1-2.4,2.2-2.1,1.5,.2,3.3,.3,3.7,2.2h0Z"/>
    <path class="cls-93" d="M113,65.1214c0,1.8-1.1,2.6-2.5,2.8-1.4,.2-2.9-.3-3-2-.1-1.9,1.9-1.8,3-2.3,1.3-.7,2.2,.2,2.5,1.5Z"/>
    <path class="cls-83" d="M329.8,74.8214c-1.7-.6-3.4-1-4.9-1.8-1.1-.6-3.1-1.4-2.4-2.9,1-2.2,2.6-.5,3.8,.1,1.9,1,3.8,1.5,5.8,.1,.9-.6,2-2.1,3.1-.7,1,1.5-.6,2.5-1.6,3.3-1.1,.9-2.4,1.3-3.8,1.9h0Z"/>
    <path class="cls-83" d="M341.9,61.6214c0,1.3-.4,2.4-1.9,2.5-1.4,.1-2.2-.7-2.4-2-.2-1.5,.3-2.9,2-2.8,1.3,0,2.2,.9,2.3,2.3Z"/>
    <path class="cls-82" d="M320.7,61.8214c-.3,1.2-.7,2.2-2.2,2.3-1.6,.1-2.1-.8-2.1-2.2,0-1.2,.2-2.6,1.7-2.7,1.4,0,2.5,1,2.6,2.6Z"/>
    <path class="cls-4" d="M319.8,15.1214c.3,2.7-.4,4.6-2.7,5.2-1.8,.4-1.8-1.3-1.6-2.4,.6-2.3,1.5-4.8,3.9-5.4,1-.3-.1,2,.4,2.6h0Z"/>
    <path class="cls-28" d="M333.6,13.3214c-1.1,.1-2-.3-1.9-1.2,.2-1.7,1.5-2.6,3-3,1.4-.4,2.7,.6,2.5,1.7-.2,1.8-2.8,1.2-3.6,2.5h0Z"/>
    <path class="cls-21" d="M321.9,22.3214c.8,0,1.5,.7,1.3,1.3-.6,2.3-2.7,2.2-4.5,2.5-.6,.1-1.8-.7-1.4-1,1.4-1.2,3-2,4.6-2.8h0Z"/>
    <path class="cls-53" d="M308.2,26.6214c-.9,.2-1.1-.3-.9-.7,.8-2.2,1.7-4.4,2.5-6.6,.1,.2,.4,.5,.4,.7-.2,2.3-.7,4.6-2,6.6h0Z"/>
    <path class="cls-4" d="M326.6,19.3214c-1.5-.4-1.7-1.2-1.5-2.1,.2-1.1,.6-2.3,1.8-2.8,.2,.6,.5,1.3,.5,1.9-.2,1-.6,2-.8,3h0Z"/>
    <path class="cls-72" d="M358.7,34.6214c.6,.3,1.1,.5,1.6,.8-.4,.4-.9,1.1-1.3,1.1-.7,0-1.7-.1-1.9-1.1-.1-.2,.9-.5,1.6-.8h0Z"/>
    <path class="cls-45" d="M364.4,62.2214c-1.6,.1-2-.7-1.9-1.6,.1-1.2,.1-2.8,1.7-2.8,1,0,.7,1.3,.8,2.1,.1,.9,.5,2-.6,2.3h0Z"/>
  </g>
  <g id="Texte">
    <path class="cls-62" d="M360.2,317.6214c-.1-8-1.5-16,.3-23.9,2.1-9.5,7.8-14.8,17.3-16.2,5.7-.8,11.5-.7,17.2-.1,10.9,1.2,17.6,8.1,18.9,18.9,.9,7.5,.7,14.9,.9,22.4,.6,26.8,1.3,53.6,6.4,80,1.3,6.8,3.1,13.6,6.6,19.7,3.2,5.4,7.3,9.1,14.2,8.9,6.8-.2,10.9-3.8,13.9-9.4,4.5-8.5,5.9-17.8,7.1-27.1,3.6-29.4,3.8-59,4.1-88.6,0-4.4,.6-8.7,2.3-12.7,3.6-8.6,10.7-11.7,19.5-12.4,8.6-.7,14.8,2.8,18.9,10.2,5.4,9.8,7,20.5,7,31.3,.1,37.6-3.3,74.8-17.4,110.1-6.9,17.3-17.3,32.4-35.9,38.5-34.3,11.3-68.3,1.9-84.2-38.6-8.8-22.4-12.4-45.9-14.7-69.7-1.2-13.9-2.2-27.6-2.4-41.3h0Z"/>
    <path class="cls-62" d="M0,372.5214v-72.1C0,284.7214,7.7,277.0214,23.4,277.0214c2.8,0,5.6,0,8.4,.2,11.1,.7,18.4,7.7,19.5,18.7,.5,4.5,.3,9,.3,13.6-.1,37.8-.1,75.6-.4,113.4,0,4.1,1,5.5,5.2,5.2,7.8-.5,15.7-.4,23.5-.5,2.4,0,4.9-.1,7.3,.1,11.7,.7,18.4,6.9,19.2,17.9,.9,11.8-5.2,19.9-16.7,22.2-3.1,.6-6.2,.9-9.3,.9H24c-16.3,0-24-7.7-24-24,0-24.1,0-48.1,0-72.2H0Z"/>
    <path class="cls-62" d="M748.3,368.8214v72.1c0,2.3,.1,4.5-.1,6.8-.9,11.9-6.7,18.4-18.4,20.5-5.6,1-11.2,.6-16.5-1.1-7.3-2.3-11.5-7.6-12.9-15-.7-3.6-.9-7.3-.8-10.9,1-48.7,1.2-97.5,0-146.2v-.5c-.1-20.7,13.4-30.9,33.5-25.2,9.8,2.8,15,10.1,15.2,22.2,.2,11.8,0,23.7,0,35.5v41.8h0Z"/>
    <path class="cls-62" d="M670.3,368.5214v73.1c0,2.8,0,5.6-.3,8.3-.9,9.5-6.8,16-16.2,17.8-2.5,.5-5.2,.9-7.7,.9-16.1,0-24.2-7.9-24.1-24,.1-20.4,.7-40.7,.7-61.1,0-29.4-.5-58.8-.7-88.2,0-3.3-.2-6.7,.5-9.9,2.6-13.1,14.6-19.7,30-16.8,11.1,2.1,17.3,8.7,17.7,20,.4,13.4,.2,26.8,.3,40.2-.2,13.2-.2,26.4-.2,39.7h0Z"/>
    <path class="cls-62" d="M544.8,392.7214v-50.7c0-3.3,.2-6.6,.8-9.9,1.4-7.4,5.5-12.6,12.8-15.1,5.9-2,12.1-2,18-.6,9,2.2,14.2,8.5,15.2,17.7,1.2,11.1,.4,22.3,.3,33.4-.1,24.9-.2,49.8-.2,74.7,0,2.3,0,4.5-.1,6.8-.6,10.2-6.4,16.6-16.4,18.7-5.3,1.1-10.4,.8-15.5-.6-8.6-2.3-14-9.6-14.1-19.7"/>
    <path class="cls-62" d="M567.9,296.4214c-2.8-.2-5.6-.3-8.3-.6-16.9-2.1-21.9-12.1-19.8-29.2,1-8.5,6.3-13.7,14.5-15.8,7.3-1.9,14.8-2,22.3-1.1,16.6,2.1,22.1,11.9,19.8,29.2-1.5,10.9-8.6,16-22.2,17.2-2.1,.2-4.2,0-6.3,0v.3h0Z"/>
    <path class="cls-63" d="M1477.2,497.6214c7,.2,13.5,.3,17.6,6.7,1.6,2.5,2.2,5.3-.1,7.7-2.2,2.3-5.1,2.3-7.8,1.1-1.2-.5-2.1-1.7-3-2.8-1.1-1.4-2.4-2.6-4.2-2.8-3.1-.3-6.8-.9-7.8,3.1-1,4,2.1,5.4,5.5,6.1,3.2,.7,6.4,1.4,9.7,2,5.7,1.1,9.5,4.1,10.5,10,1,6.2-1.6,12.5-6.9,15.1-8.9,4.4-18.1,4.3-27.2,.6-1.9-.8-3.5-2.3-4.5-4.2-1.6-3.1-3-6.3,.8-8.7,3.4-2.2,6.8-1.9,9.1,1.7,2.4,3.9,5.7,4.7,9.8,3.9,2.3-.5,4.5-1.3,4.6-4.1,.1-2.7-1.3-4.3-3.7-5-3.8-1.1-7.8-1.8-11.6-2.8-8.8-2.4-12.6-9.3-9.7-18,1.9-5.9,6.7-8.1,12.3-9.1,2.2-.4001,4.7-.4001,6.5999-.5h0Z"/>
    <path class="cls-63" d="M1206.4,497.6214c6.2,.1,11.6,.3,16,4.2,3.6,3.2,4.5,7.6,2.2,10.1-2.6,2.9-7.5,2.3-10.9-1.4-.9-1-1.8-2.1-3.2-2.6-3.7-1.4-8.5-.2-9.1,2.6-.9,4.5,2.4,5.6,5.8,6.3,3.2,.7,6.5,1.3,9.7,2,5.2,1.1,9.1,3.8,10,9.3,.9,6,0,11.9-5.7,15.1-9.2,5.2-18.9,5.1-28.6,.9-1.5-.7-2.9-2.1-3.8-3.5-1.9-2.9-3.2-6.3,.1-8.9,3.4-2.6,7.1-2.3,9.5,1.5,2.5,3.9,5.8,4.7,9.9,3.8,2.3-.5,4.4-1.4,4.4-4.3,0-2.7-1.4-4.3-3.8-4.9-3.3-.9-6.8-1.5-10.1-2.4-8.8-2.2-12-6.3-11.5-14.6,.4-7.3,5-11.8,13.2-13,2-.0999,4.3-.0999,5.9-.1999h0Z"/>
    <path class="cls-76" d="M1423.3001,495.8214c-2,0-3.3-.3-4-1.8-.6-1.4-.2-2.8,.9-3.8,3.7-3.3,8-5.5,12.7-6.8,2.1-.5,3.7,.4,4.7,2.4,1.1,2.1,.3,3.9-1.4,5-4,2.7-8.7,4-12.8999,5h0Z"/>
    <path class="cls-76" d="M1322.8001,495.7214c-2.4,.2-3.7-.3-4.4-1.6-.9-1.6-.1-3.1,1.2-4.2,3.6-3,7.7-5.3,12.3-6.5,2.3-.6,4.1,.4,5,2.7,.8,2.1,0,3.8-1.8,4.9-4.1,2.5-8.6,3.8-12.2999,4.7h0Z"/>
    <path class="cls-62" d="M1046.4,439.6214c-12.4-2.4-24.9-2.3-37.4-2.5-9.4-.2-18.8-.2-28-2.8-6-1.7-8.8-5.5-8.2-10.4,.3-2.3,1.1-3.5,3.7-2.8,5.9,1.6,12.1,1.7,18.1,2.1,15.1,1.1,29.9-.2,44.1-5.8,9.3-3.7,17.5-9.2,22-18.3,8.9-17.7,8.2-35.8,.6-53.9-1.1-2.5-3.6-4.2-3.9-7.1,2.9,0,5.9-.1,8.8-.1,6.2,0,9.6-2.7,11.5-9.2,1.5-5.4-.1-8.9-5.4-12.1-2.4-1.4-5.1-2.2-7.8-2.8-11-2.3-22.2-2.1-33.3-2.6-21.4-.8-42.8-.3-63.6,5.7-19.2,5.6-31,17.9-34,38-1.2,8.1-.8,16.3,.3,24.4,1.9,13.8,8.1,25,20,32.7,3.2,2.1,.8,2.5-.7,3.5-17.6,12.2-18.3,34.6-1.5,47.6,.8,.6,2.1,1.4,2,1.9-.2,1.2-1.7,.9-2.6,1.1-11.3,2.8-17.4,10.1-19.1,21.4-2.3,15.7,5.5,30.8,20.4,39,15.6,8.6,32.5,10.9,50.9,10.7,10.6,.4,21.9-1.1,33-4.2,17.6-5,32.5-14,39.6-31.8,9.6001-23.0001,8.4001-54.2001-29.4999-61.7001h0Zm-68.1-79.4c.9-11.2,5.7-16.6,16.7-18.7,4.3-.8,8.7-.8,13-.1,10.4,1.7,14.9,6.6,16.5,17.1,1.2,8,1,15.9-1.4,23.7-2.5,8-8,12.3-16.3,13.3-3.6,.4-7.3,.4-10.9-.1-10.3-1.5-16.2-8.2-17.5-20.2-.3-2.8-.3-5.5-.5-8.7,.2-1.7,.2-3.9999,.4-6.3h0Zm58.0001,141.2c-9.5,3.3-19.4,3.7-29.4,3.8-9.4,.1-18.8-.5-27.8-3.4-9.8-3.1-14.7-10.3-13.4-19.1,.8-5,3.9-8.2,8.1-7.7,14.6,1.9,29.2,.6,43.8,.9,5.9,.1,11.8,.3,17.6,1.8,6.9,1.8,9.6,4.8,9.9,11,.4,6-2.6,10.6-8.7999,12.7h0Z"/>
    <path class="cls-62" d="M909.3,405.1214c0-14.8,.5-29.6-.1-44.4-.9-22.4-12.8-38.1-34.3-44-22.7-6.2-45.5-4.9-67.9,2.3-13,4.2-22.5,12.4-26.8,25.7-3.6,11.3,1.2,20.1,12.5,23.4,4.4,1.3,8.9,1.4,13.5,1.2,6.2-.2,11.1-2.6,14.4-8,2.3-3.7,4.5-7.4,7-11,4.3-6.3,13.2-9,22.1-7,6.7,1.6,10.4,6.5,11.6,15,.8,5.4,.8,10.8,1,16.1,.2,3.6-1.1,4.3-4.4,4.2-17.8-.5-35.5,.7-52.6,6.5-17.8,6.1-30.7,17-33.4,36.9-2.7,20.4,5.1,39.3,27,45.8,21.5,6.4,42,4.6,60.2-9.9,1.4-1.1,3-3.4,3.5,.6,.8,6.2,5.4,8,10.6,9,5.2,.9,10.4,1.1,15.6,1.1,13.9-.1,21.5-7.4,21.6-21.2m-56.3999-12.6c-8.6,5.4-17.8,6.7-27.4,3.8-6.7-2-10-7.2-11-13.9-1-6.8,1.4-12.3,7-16.2,4.2-2.9,9-4.4,14-5.4,6.8-1.4,13.8-1.5,20.7-2.3,5-.6,6,1.5,5.5,5.8-.3,2.4,0,4.9,0,7.3,1.5,8.8-.9,15.9-8.8,20.9h0Z"/>
    <path class="cls-62" d="M1233.3001,367.6214c-3.4-21.8-13-39.3-34.1-48.4-14.8-6.4-30.4-7-46.1-5.2-27.4,3.3-46.3,18.2-53.1,43.2-6.6,24.2-5.8,48.6,1.5,72.6,5.2,17.1,15.9,30.1,32.9,36,23,7.9,46.5,7.9,69.6-.1,11-3.8,19.3-10.9,23.7-22,4.2-10.7-.1-19.1-11.2-21.9-9-2.3-17-1-23.2,6.4-7.4,8.6-16.8,12-27.9,11.2-11.2-.9-17.4-5.8-21-16.5-1.6-4.7-1.9-9.5-2.8-14.3-.7-3.6,.5-4.8,4.3-4.7,13.6,.2,27.2,.1,40.7,.1,13.4,0,26.8-.2,40.2,.1,5,.1,7-1.9,7.2-6.6,.6-10.1,.8-20-.7-29.9h0Zm-58.9,10.3h-10.4c-6.1,0-12.2-.2-18.3,.1-3.7,.2-4.5-1.3-4.2-4.6,.4-4.2,.8-8.3,2.1-12.3,3.5-11.3,12.3-17.5,23.4-16.6,10.7,.8,17.1,7.3,19.2,19.3,1.6001,9.4-2.2999,14.1-11.7999,14.1h0Z"/>
    <path class="cls-62" d="M262.5,366.9214c-3.5-26.3-19-44.5-44.6-51.1-11.6-3-23.4-3.1-35.2-1.8-27.8,3.2-47.2,18.7-53.7,44.5-6,23.9-5.4,48,1.9,71.6,5.5,17.6,16.8,30.6,34.6,36.3,20.9,6.8,42.2,6.7,63.3,.9,13.3-3.7,23.9-11.2,28.7-25,3.1-8.9,.3-15.6-8-19.3-9.7-4.4-19-3.1-26.3,4.7-9.3,10-20.2,13.5-33.5,10.8-5.6-1.2-9.9-4-12.9-8.9-4-6.6-5-13.9-5.8-21.4-.4-3.5,.4-4.4,3.9-4.4,13.6,.2,27.2,.1,40.7,.1,13.4,0,26.8-.2,40.2,.1,5.2,.1,7.3-1.8,7.4-6.8,.3-10.2,.6-20.2-.7-30.3h0Zm-51.3,11.1c-5.9-.4-11.8-.1-17.7-.1-6.1,0-12.2-.2-18.2,.1-3.6,.2-4.4-1.3-4.3-4.5,.3-4.9,.8-9.7,2.5-14.3,3.7-9.9,12.3-15.5,22.7-14.7,10.1,.8,16.3,6.4,18.7,17.1,.8,3.5,.8,7.2,1.4,10.8,.7,4.2-.5,5.9-5.1,5.6h0Z"/>
    <path class="cls-63" d="M1128.6,490.6214c-.1-5.2-2.7-7.4-7.5-7.4s-7.3,2.2-7.7,7.2c-.2,3.1,0,6.3,0,9.4,0,2-.4,2.3-2.3,1.2-10.4-6.2-20.1-2.6-24.4,8.8-2.5,6.7-2.6,13.6-1.8,20.6,1.8,14.9,15.5,21.1,28,12.8,.8-.5,1.5-2.3,2.7-.2,2.2,3.8,5.8,3.6,9.2,2.5,3.6-1.2,3.8-4.7,3.8-7.9,.1-7.7,0-15.3,0-23h0c.1001-7.9999,.3002-15.9999,.0001-23.9999h0Zm-15.1,26.3c-.1,1.9,0,3.8,0,5.7h-.1c0,1.7-.1,3.5,0,5.2,.2,3.1-.1,6-4,6.7-4,.6-7.9,.1-9.6-4.2-2-5.2-1.9-10.5-.2-15.8,1.4-4.4,4.8-5.8,9-5,3.9999,.8,5.2,3.6,4.8999,7.4h0Z"/>
    <path class="cls-63" d="M1297.9,508.3214c-3.2-8.6-13-13.5-21.3-9.7-6.3,2.9-5.4-.3-5.2-4.2,.1-1.6,0-3.1-.1-4.7-.2-4.1-2.8-5.8-6.5-6.2-5-.6-8.1,2.4-8.2,8.4-.2,7.6,0,15.3,0,23h.1v11.5c0,3.8-.2,7.7-.1,11.5,.1,2.9-.3,6.4,3,7.7,3,1.2,5.2-1.1,7.3-3,1.4-1.3,2.2-2,4.1-.3,9,7.8,20.9,5.3,25.8-5.5,4.1998-9.3,4.5999-18.9999,1.0999-28.5h0Zm-13.8,23.2c-1.5,3.2-4.5,4.2-7.9,3.6-3.4-.7-4.8-3.2-4.9-6.5-.1-2.4,0-4.9,0-7.3h-.1v-4.7c-.1-3-.3-5.9,3.9-6.6,4-.7,7.6-.1,9.2,3.8,2.5001,5.9,2.4,12.0001-.2,17.7h0Z"/>
    <path class="cls-63" d="M1398.8001,509.4214c-3-9.2-11.4-13.5-20.7-11.3-1.9,.4-4.2,3-5.4,1.6-1.1-1.3-.4-4.3-.5-6.5v-1.6c-.4-5.4-3-8.2-7.6-8.1-4.8,.1-7.1,2.6-7.2,8.3-.1,7.8,0,15.7,0,23.5,0,7.7-.1,15.3,0,23,0,2.7-.5,6,2.7,7.3,3,1.3,5.2-1.1,7.3-2.9,1.3-1.1,2-2.3,4.1-.4,9.3,8,21,5.4,26.1-5.9,3.8999-8.7999,4.2-17.9999,1.2-26.9999h0Zm-14.1001,22.1c-1.4,3.2-4.4,4.3-7.9,3.6-3.4-.7-4.8-3.1-4.7-6.5,.1-2.4,0-4.9,0-7.3h-.1v-4.7c0-2.7-.6-5.7,3.5-6.4,4-.7,7.6-.3,9.3,3.6,2.7,5.8,2.5,11.9-.1001,17.7h0Z"/>
    <path class="cls-63" d="M1153.5,525.9214c3.7,.1,7.3,0,11,0h3.7c12.3,0,13.8-2.1,10.5-14.2-2.5-9.4-9.4-14.1-20.5-14-11.4,.1-18.4,5-20.7,14.5-1,4.1-1.4,8.2-1.1,12.4,1.5,18.7,17.2,27.9,34.4,20.2,3.7-1.7,6.4-4.2,7.1-8.4,.4-2.2-.9-3.6-2.8-4.5-4-1.8-6.7,.2-9.8,2.6-6.1,4.9-13.5,1.9-14.4-5.5-.2999-2.1,.2001-3.2,2.6001-3.1h0Zm-3.4-8.9c-.2-5.9,4.1-10.7,9.1-10.4,5.6,.3,7.8,4.4,7.7,10l-16.7999,.4Z"/>
    <path class="cls-63" d="M1334.3001,498.2214c-15.7-2.6-27.6,2.9-28.1,21-.1,1.9-.1,3.8,.1,5.7,1.1,16.6,10.9,24.3,27.4,21.6,4.5-.7,9-1.7,11.9-5.7,1.7-2.3,3.3-5.1,.9-7.5-2.5-2.6-5.8-2.9-9-.8-1.1,.8-2,1.9-3.2,2.7-5.9,3.8-12,1.2-13.6-5.5-.8-3.3,.4-4,3.3-3.8,3.5,.2,7,0,10.4,0h11c1.6,0,3.1-.1,3.8-2,3.3997-9.6-4.4003-24-14.9003-25.7h0Zm-14.4,19.3c-.2-5.9,4.4-10.7,9.6-10.4,5.9,.3,8.2,4.4,8.2,9.9l-17.7999,.5h0Z"/>
    <path class="cls-63" d="M1433.1,497.9214c-16.3-1.7-25.5,5.5-26.2,20.7-.1,2.3-.1,4.5,0,6.8,1.1,18.5,19.7,28.1,35.8,18.7,2.2-1.3,3.9-2.9,4.9-5.2,1.7-3.8,.4-6.4-3.6-7.4-3.3-.8-5.6,.8-7.9,2.9-3,2.8-6.7,3-10.3,1.8-3.1-1.1-4-4.1-4.5-7.1-.3-2.2,.4-3.2,2.7-3.1,3.6,.1,7.3,0,11,0h11c2.2,0,3.4-.5,3.8-3.1,2-13.2001-5-23.8-16.7001-25.0001Zm-12.4,19.7c-.2-5.9,4-10.7,8.8-10.4,5.5,.3,7.5,4.4,7.5,9.9l-16.3,.5Z"/>
  </g>
  <g id="Maison">
    <path class="cls-97" d="M1290.7,449.2214c-1.9-7.4-4.9-15.1-2.8-22.5,4.2-14.7,4-29.2,1.6-44.2-2.9-17.4-.1-34.8,.4-52.2,.2-5.6-.3-11.3,1.4-16.8,.9-2.3,.7-4.7,1.1-7,.2-1.4,.4-2.7,.9-4,1.9-5.2,5.8-7.7,9.5-6.2,4.1,1.7,5.7,6.7,3.8,11.6-5.8,4.3-5.9,4.7-4.1,12,.4,1.6,1.1,3.3,.5,5-2.5,11.3-2.7,22.9-1.6,34.3,1.4,14.9,2.2,29.7,1.8,44.7-.2,6.5,0,6.4,6.1,8.2,6.1,1.8,10.9,5.7,15,10.3,2.1,2.3,4.2,4.5,6.3,6.8,2.4,2.6,4.4,2.7,6.5-.6,3.2-4.9,5-10.5,7.8-15.7,1.2-2.3-.1-2.6-2-2.7-4.4-.1-8.9,.4-13.3-.7-2.2-.5-4.3-1-6.4-2-9.9-4.5-10.8-11.9-2.4-18.8,12.1-3.1,23.5-7.8,34.9-12.7,14.8-1.3,29.5-3.2,44.4-2.7,1.7,.1,3.5-.3,5.1,.4,9,3.7,18.5,2.4,27.8,2.9,5.2,.9,10.4,2.2,15.5-.4,2.4,0,4.8,.2,7,1,2.9,1.1,4,.4,4-2.7,0-1.9,.1-3.7,0-5.6,0-1.7-.6-3-2.5-3.1-4.5-.2-6.9-3-8.4-7-.6-3.1-.6-6.3-.1-9.4,2.1-7.3,2-14.9,2.4-22.3,.6-11.3,3.6-22.2,4.9-33.4,.1-1,.3-2,.4-3,.5-5.7-.1-6.2-5.8-4.8-4.6-1-7.5,1.4-10.1,4.7-6.9,3.4-14,6.2-21.8,6.9-.7,.1-1.4,.4-2,.2-9.3-2.6-18.2,1.6-27.2,2.1-3.6,.2-7.1-1.1-10.7-.1-3.4,.8-5.4,1.8-4.9,6.1,.5,5.1-3,8.9-8.8,9.5-13.4,1.3-26.7,.7-38.8-6.1-7.4-4.2-15.6-7-22.3-12.5-2.3-1.9-5.1-3.8-3.3-7.6,9.4-.1,18.6,1.9,28,2.5,17.5,1.1,34.1-4.1,51.1-6.3,28.9-3.8,57.3-10.8,86.5-12.5,4.9,5.7,10.5,11,10.4,19.5-.1,3.9,.4,7.7,3.6,10.7,1,1,1,2.8,1.2,4.3,.1,2,.3,4,.4,6,1.6,9.4,.6,18.9-.1,28.3-.1,2.3-.2,4.6-.2,7-.6,11.9-.6,23.8-1.3,35.7-.4,6.1-.8,12.3-1.6,18.3-.6,4.5-.8,8.2,4.2,10.1,.8,3.2,1.2,6.5,.9,9.8-.8,1.8-2.4,2.8-4.1,3.7-2.3,1.2-4.1,3-5.2,5.4-2.3,5-5.8,8.1-11.7,8.2-2.5,.1-5.5-.3-7.8,1.5-7.7,2.1-15.4,4.5-23.4,4.7-8.6,.2-9.6-.8-11.5-9.8,1-4,4.4-5,7.7-5.8,4.6-1.1,9.4-1.8,13.8-3.6,.5-.2,1.3,.2,1.5-.7-.5,.2-1,.1-1.5,0-4.8-1.5-9.1-3.9-12.9-7.1-8.8-7.5-8.9-16.3-.3-24.1,1.4-1.3,2.9-2.4,4.2-3.7-2-.7-4-.1-5.9-.2-2.6-.1-5.1,.1-7.7-.1-4-.2-7.6,.7-11.2,2.8-7.1,4.2-12.1,2.9-16.8-3.9-2-2.8-5.1-2.1-7.8-2.9,0,0-.2,0-.1,.1,5.4,4.7,5.8,9.1,1.3,13.3-1,.1-2.1,.4-3,.2-10-1.3-15.4,3.7-15.8,15-.3,8.4-1,16.7-1.6,25-2.1,0-2.6,2-3.8,3-5,4.2-9.7,4.8-14.9,1.6-1.4-.9-2.3-.8-3.6-.1-7.7,3.9-12.6,3.1-18.6-3.4-3.6-3.9-6.9-8-10.8-11.7-1.4-1.3-2.7-2.6-4.4-3.5-4.4-2.2-6.1-1.3-6.7,3.6-.6,4.4-1.8,8.7-3.6,12.8-1.3999,2.9001-2.8999,5.8001-6.7,6.4001h0Z"/>
    <path class="cls-92" d="M1364.7,163.8214c2.5-4.8,5.6-7.8,8.2-12.7,2.4-1.6,2.8-4.5,4.1-6.8,1.9-3.2,1.9-9.8,5.9-8.9,3,5,8.3,14.5,11.4,19.5,1.1,2.4,1.6,5,1.1,7.5-1.7,8.5,3.5,13.6,8.8,18.8,1.2,1.2,2.7,2.1,3.9,3.2,4.5,4.2,2.5-4.8,3.6-9.5,.7-2,9,10,9.7,9.7,14,16.8,23.3,29.7,36.9,46.8,1.3,1.6,2.5,3.2,3.2,5.1,1.3,1.1,2.1,2.6,3,4,.6,1,.4,2.3,1.3,3.2-.6-1.1-.8-2.1,.5-2.8,4.7,4.4,8.8,9.1,9,16-.3,3.2-3.1,3.4-5.2,4.5-9.5,2.1-19.2,3-28.9,3.6-14.4,.9-28.1,5.7-42.3,7.1-16.3,1.7-32.4,4.5-48.3,8.5-1.1,.3-2.4,.1-3.6,.2-1.7-.6-3.4-.6-5.1,0-9.2,.7-18.3,.4-27.3-1.2-.3-4.1,3.2-4.9,5.7-6.7,.5-.3,1.6-.5,1.3-1.1-.2-.4-1.3-.1-1.8,.3-3.5,2-6.7,4.5-10.5,5.8-1.7,.6-3.6,.9-5.5,.8h0c-2.7-.1-8.9,1.7-10.6-.4-3.1-3.9-5.6-12.5-4.5-13.9,2.3-17.5,7.3-28.8,16.4-39.5,9.5-18.2,41.8-29.9,53-47"/>
    <path class="cls-92" d="M1461.3001,192.2214c-.6,2.7-3.3,11.4-6.7,11.8-6.6-6.9-13.2-13.8-19.8-20.7-1.4-1.5-1.9-3-1.6-5.1,1.9-11.2,5.7-20.9,9.5-31.8,2.2-3.2,5.1,4.6,7.7,2.3,4.1,.1,6-1.1,10-1,3.1,2.2,4-1.3,4.6,2,.5,3.2,1.7,3.4,4.4,2.1,5.8-2.9,5.8-5.7,8.8-1.1,0,3,1.7,9.3,1.7,12.3-2.5,9.7-.8,15.6-2.5,25.3-1.2,6.6-1,17.1,.8,23.4,1.2,4.1,1.1,8.5,1.8,12.7-.9,2.1-.8,11.3-2.6,13.2-1.7-1.7-3.6-5.1-5-7-2.9-3.7-7-8.6-9.3-12.8"/>
    <path class="cls-96" d="M1372.3001,430.6214c.4-5.7,.8-11.4,1.2-17.1,.3-4.1,1.7-6.9,6.6-6.1,8.4,1.3,16.5-1.5,24.8-2.3,3.9-.4,5.3,.8,5,4.8-.3,3.5-.4,7-.5,10.5-.7,3.1-.7,6.3,0,9.4,.4,4.7,1.5,9.3,3.2,13.7,.8,2.2,3.8,9.1,1.2,11.2-15,3.9-25.5,2.2-41.4,3.2-2.2,0-2.3-8.8-1.9-10.8,.4-2.2,.7-4.5,1.1-6.7,1.1001-3.3-.0999-6.6,.7002-9.8h0Z"/>
    <g>
      <path class="cls-96" d="M1442.2,305.1214c-1.9,18.7-1.8,39.4-1.5,60.1,.1,3-.4,4-3.2,2.1-8-5.4-17-8.2-26.4-9.3-4.1-.5-10.7-1.9-10.8-6.4-.4-11.5-1.6-23.1,1.2-34.5,.3-1.3-.2-2.7,1.6-3.4,9.9-3.5,22.7-11.3,32.6-15,7.0001-2.7,6.9001-3.1,6.5001,6.4h0Z"/>
      <path class="cls-96" d="M1313.9,338.9214c.4-6.7,0-13.3-2.3-19.7-.3-1-1.2-2.2-.4-2.9,1.1-.9,2.1,.5,3.1,1.1,4.7,2.8,9.3,5.8,14.3,8.1,3.6,1.7,7.4,2.6,11.4,2.8,5.8,.3,14.6,.5,14.1,6.2-.7,9.3,2.3,18.2,2.5,27.4,0,2.1-.5,2.8-2,3.5-8.5,4.1-22.9,10.5-32.2,12.3-3.6,.7-6-.6-6.1-4.3,0-11.5-2.8-22.9-2.4-34.5h0Z"/>
      <path class="cls-96" d="M1385,357.2214c-6.8-1-13.5,1.6-20.4,2.7-3.5,.6-5.4,1-6.1-4.6-.9-8.1-1.8-16.2-2.9-24.3-.3-2.2-.1-3.1,1.6-4.1,10-6.3,20.7-10.9,32.2-12.6,7.4-1.1,8.8,.4,7.2,7.4-2,9-.7,18.1-.5,27.2q.1,8.4-8.4,8.4c-.5999-.1-1.4999-.1-2.6998-.1h0Z"/>
    </g>
    <path class="cls-95" d="M1418.8001,172.0214l72.1,88.9,2.7,1.2c-1.8-3.2-3.5-6.4-5.7-9.2-3.1-3.7-3.3-7.4-1.8-11.8,2.2-6.4,3.2-13,2.8-19.7-1-20.8-.7-41.5-.4-62.3,.2-11.2-1.7-18.2-18.3-20.1-8.8-1-17.7-1.4-26.6-1.8-7.1-.3-12.4,2.4-13.4,7.9-1.7,9.6-5.9,18.7-5.4,28.7,.1,1.2,.8,3.2-.6,3.7-1.4,.4-2.1-1.4-2.9-2.5-9.2-12.6-19.4-24.4-26.9-38.2-1.4-2.5-3.1-4.9-5-7.1-5.8-6.6-10.4-6.5-16.1,.3-3.9,4.7-5.9,10.4-8.6,15.7-10.8,22.2-25.1,42.4-36.5,64.3-.4,.7-1.2,1.1-1.9,1.7-2.1,2.5-3.4,5.5-4.8,8.4-9,18.4-18.7,36.4-31.7,52.3-.7,.8-1,1.8-1.3,2.7-4.2,5-6,11-6.4,17.4-1,15.6-1.9,31.1-2.4,46.7s-2,31.2,.6,46.7c1.7,10.4,2.9,20.9-.3,31.1-2.9,9.4-2.2,18.5-.5,27.8,2.4,13.1,7.5,17.6,20.8,17.6,13.5,0,26.8-3,40.4-2.7,18.6,.4,37.3,.2,55.9,.1,9.5-.1,18.5-4.5,27.8-4.3,18,.4,34.9-6.3,52.6-7.8,7.6-.6,12.4-6.1,14.7-13.4,1.5-4.6,1.9-9.4,1.4-14.2-2.8-26.5-3.1-53.1-1.6-79.7,.5-8.5,2.2-17.1,.3-25.6-1.2-5.2-1.1-10.5-.9-15.9,.2-8.4-.4-16.9-3-24.9-1-3-.3-3.5,2.4-4.1,2.2-.5,5.4-2.2,4.5-5-.9-3-4.3-1.9-6.7-1.6-8.8,1.2-17.6,2.8-26.4,4.3-6.9,1.1-13.7,2.2-20.6,3.3-49.1,7.6-107.7,12.9-157.2,16.3"/>
  </g>
</svg>